<svg t="1706759861658" class="icon" viewBox="0 0 1024 1024" version="1.1" xmlns="http://www.w3.org/2000/svg" p-id="893" width="16" height="16"><path d="M147.923583 720.295647L50.269966 876.637645c-4.970874 9.781397 0 21.968055 12.186658 21.968055l131.968681 7.376135c4.810523 0 7.376135 2.405262 9.781397 4.970874l80.656436 107.435014c7.376135 7.376135 19.562794 7.376135 24.533668 0l92.843094-153.936736c4.970874-7.376135 2.405262-14.59192-4.970874-19.562794L167.486376 715.485124c-7.215785-2.565612-14.59192 0-19.562793 4.970873z m728.152834-2.565613l97.653617 156.341999c4.970874 9.781397 0 22.128406-12.347009 22.128405l-131.968681 7.376136c-4.810523 0-7.376135 2.565612-9.621046 4.970874l-80.656436 107.435014c-7.376135 7.376135-19.562794 7.376135-24.373317 0l-92.843094-153.936737c-4.810523-7.376135-2.405262-14.59192 4.970874-19.562794l229.622299-129.56342c7.376135-4.970874 14.752271-2.405262 19.723144 4.970874zM856.513624 185.044785L546.074538 9.139994c-21.968055-12.186658-51.312246-12.186658-73.280301 0L165.241466 182.799875C143.11306 194.986533 128.52114 219.5202 128.52114 243.893517V593.297839c0 24.373317 14.59192 48.746633 36.720326 61.093642l310.439085 175.904792c21.968055 12.186658 51.312246 12.186658 73.280301 0l307.873473-170.933918c22.128406-12.347009 36.720326-36.720326 36.720326-61.093642V248.543689c0-26.137175-13.950517-50.350141-36.720326-63.498904z m-146.720953 149.126214l-180.715314 261.371751c-4.970874 7.376135-14.59192 12.347009-24.373317 12.347009-9.621046 0-18.76104-4.489821-24.533667-12.347009l-173.499531-261.371751c-9.781397-12.347009-4.970874-31.749452 7.376136-39.125587 12.347009-7.376135 31.749452-4.970874 39.125587 7.376135l148.965863 224.811776 156.341998-227.217037c9.781397-12.186658 26.938929-17.157532 39.125587-7.376136 19.562794 12.186658 21.968055 29.34419 12.186658 41.530849z" fill="#00D1AD" p-id="894"></path></svg>